<svg width="23" height="24" viewBox="0 0 23 24" fill="none" xmlns="http://www.w3.org/2000/svg">
<path d="M13.5956 12.0002L21.479 4.13518C21.8242 3.78995 22.0181 3.32173 22.0181 2.83351C22.0181 2.34529 21.8242 1.87707 21.479 1.53184C21.1337 1.18662 20.6655 0.992676 20.1773 0.992676C19.6891 0.992676 19.2209 1.18662 18.8756 1.53184L11.0106 9.41518L3.14563 1.53184C2.80041 1.18662 2.33218 0.992676 1.84396 0.992676C1.35574 0.992676 0.88752 1.18662 0.542297 1.53184C0.197073 1.87707 0.00312877 2.34529 0.00312877 2.83351C0.00312876 3.32173 0.197073 3.78995 0.542297 4.13518L8.42563 12.0002L0.542297 19.8652C0.370461 20.0356 0.234072 20.2384 0.140996 20.4618C0.0479205 20.6852 0 20.9248 0 21.1668C0 21.4089 0.0479205 21.6485 0.140996 21.8719C0.234072 22.0953 0.370461 22.2981 0.542297 22.4685C0.712729 22.6403 0.915498 22.7767 1.13891 22.8698C1.36231 22.9629 1.60194 23.0108 1.84396 23.0108C2.08599 23.0108 2.32561 22.9629 2.54902 22.8698C2.77243 22.7767 2.9752 22.6403 3.14563 22.4685L11.0106 14.5852L18.8756 22.4685C19.0461 22.6403 19.2488 22.7767 19.4722 22.8698C19.6956 22.9629 19.9353 23.0108 20.1773 23.0108C20.4193 23.0108 20.6589 22.9629 20.8824 22.8698C21.1058 22.7767 21.3085 22.6403 21.479 22.4685C21.6508 22.2981 21.7872 22.0953 21.8803 21.8719C21.9733 21.6485 22.0213 21.4089 22.0213 21.1668C22.0213 20.9248 21.9733 20.6852 21.8803 20.4618C21.7872 20.2384 21.6508 20.0356 21.479 19.8652L13.5956 12.0002Z" fill="white"/>
</svg>